# xmcd CD database file
#
# Track frame offsets:
#	150
#	11012
#	28422
#	48331
#	74439
#	92258
#	112554
#	131486
#	158666
#	174952
#
# Disc length: 2612 seconds
#
# Revision: 0
# Processed by: cddbd v1.5.2PL0 Copyright (c) Steve Scherf et al.
# Submitted via: CDex 1.70beta2
#
DISCID=700a320a
DTITLE=Bamboleo - Mi Verdad
DYEAR=2006
DGENRE=Salsa
TTITLE0=Opening
TTITLE1=La Culpa
TTITLE2=Todo Lo Bonito
TTITLE3=Fiebre
TTITLE4=Te Fui Infiel
TTITLE5=Sueño De Cristal
TTITLE6=El Maiz
TTITLE7=Amor Loco
TTITLE8=Mi Verdad
TTITLE9=Atrevimiento
EXTD=YEAR: 2006
EXTT0=
EXTT1=
EXTT2=
EXTT3=
EXTT4=
EXTT5=
EXTT6=
EXTT7=
EXTT8=
EXTT9=
PLAYORDER=
